# xmcd CD database file
#
# Track frame offsets:
#	150
#	13931
#	30980
#	47663
#	67440
#	82480
#	97832
#	114428
#	135458
#	153855
#	167995
#	186445
#	206221
#	225369
#	243971
#	262357
#	281146
#	299017
#
# Disc length: 4186 seconds
#
# Revision: 2
# Processed by: cddbd v1.5.2PL0 Copyright (c) Steve Scherf et al.
# Submitted via: CDex 1.51
#
DISCID=14105812
DTITLE=Various Artist - SF-328
DYEAR=1900
DGENRE=Blues
TTITLE0=Bruno Mars - Treasure (clean)
TTITLE1=Demi Lovato - Heart Attack
TTITLE2=Olly Murs - Dear Darlin'
TTITLE3=Taylor Swift Ft Ed Sheeran - Everything Has Changed
TTITLE4=Rihanna Ft David Guetta - Right Now
TTITLE5=Union J - Carry You
TTITLE6=Wanted The - Walks Like Rihanna
TTITLE7=Robin Thicke Ft T.I and Pharrel - Blurred lines
TTITLE8=Jason Derulo - The Other Side
TTITLE9=Loveable Rogues - What A Night
TTITLE10=Alison Moyet - When I Was Your Girl
TTITLE11=Bridgit Mendler - Hurricane
TTITLE12=Lana Del Rey -  Young And Beautiful
TTITLE13=Pink Ft Lily Allen - True Love
TTITLE14=Diana Vickers - Cinderella
TTITLE15=Ke$ha Ft Will.i.am - Crazy Kids (clean)
TTITLE16=Naughty Boy Ft Sam Smith - La La La
TTITLE17=Half Moon Run - Full Circle
EXTD=
EXTT0=
EXTT1=
EXTT2=
EXTT3=
EXTT4=
EXTT5=
EXTT6=
EXTT7=
EXTT8=
EXTT9=
EXTT10=
EXTT11=
EXTT12=
EXTT13=
EXTT14=
EXTT15=
EXTT16=
EXTT17=
PLAYORDER=
